<?xml version="1.0" encoding="UTF-8"?>
<svg id="_레이어_1" data-name="레이어 1" xmlns="http://www.w3.org/2000/svg" viewBox="0 0 90 126">
  <defs>
    <style>
      .cls-1 {
        fill: #414822;
      }

      .cls-1, .cls-2, .cls-3, .cls-4, .cls-5, .cls-6, .cls-7, .cls-8, .cls-9, .cls-10, .cls-11, .cls-12, .cls-13, .cls-14 {
        stroke-width: 0px;
      }

      .cls-2 {
        fill: #ecc29a;
      }

      .cls-3 {
        fill: #6f401e;
      }

      .cls-4 {
        fill: #ed7b7c;
      }

      .cls-5 {
        fill: #e83430;
      }

      .cls-6 {
        fill: #f2a680;
      }

      .cls-7 {
        fill: #040000;
      }

      .cls-8 {
        fill: #fff;
      }

      .cls-9 {
        fill: #e1ab5c;
      }

      .cls-10 {
        fill: #1c4826;
      }

      .cls-11 {
        fill: #2a873a;
      }

      .cls-12 {
        fill: #cd9041;
      }

      .cls-13 {
        fill: #e6d086;
      }

      .cls-14 {
        fill: #cbc8c8;
      }
    </style>
  </defs>
  <rect class="cls-8" x="36" width="9" height="9"/>
  <rect class="cls-8" x="45" width="9" height="9"/>
  <rect class="cls-8" x="54" width="9" height="9"/>
  <rect class="cls-8" x="27" width="9" height="9"/>
  <rect class="cls-8" x="18" y="9" width="9" height="9"/>
  <rect class="cls-8" x="9" y="18" width="9" height="9"/>
  <rect class="cls-8" y="27" width="9" height="9"/>
  <rect class="cls-8" y="36" width="9" height="9"/>
  <rect class="cls-8" y="45" width="9" height="9"/>
  <rect class="cls-8" y="81" width="9" height="9"/>
  <rect class="cls-8" x="9" y="90" width="9" height="9"/>
  <rect class="cls-8" x="18" y="90" width="9" height="9"/>
  <rect class="cls-8" x="27" y="99" width="9" height="9"/>
  <rect class="cls-8" x="36" y="99" width="9" height="9"/>
  <rect class="cls-8" x="54" y="99" width="9" height="9"/>
  <rect class="cls-8" x="63" y="90" width="9" height="9"/>
  <rect class="cls-8" x="72" y="90" width="9" height="9"/>
  <rect class="cls-8" x="81" y="81" width="9" height="9"/>
  <rect class="cls-8" x="81" y="72" width="9" height="9"/>
  <rect class="cls-8" x="72" y="63" width="9" height="9"/>
  <rect class="cls-8" x="81" y="54" width="9" height="9"/>
  <rect class="cls-8" x="81" y="45" width="9" height="9"/>
  <rect class="cls-8" x="81" y="36" width="9" height="9"/>
  <rect class="cls-8" x="81" y="27" width="9" height="9"/>
  <rect class="cls-8" x="63" y="9" width="9" height="9"/>
  <rect class="cls-8" x="72" y="18" width="9" height="9"/>
  <rect class="cls-8" x="81" y="18" width="9" height="9"/>
  <rect class="cls-13" x="27" y="9" width="9" height="9"/>
  <rect class="cls-13" x="36" y="9" width="9" height="9"/>
  <rect class="cls-13" x="45" y="9" width="9" height="9"/>
  <rect class="cls-13" x="45" y="18" width="9" height="9"/>
  <rect class="cls-13" x="36" y="18" width="9" height="9"/>
  <rect class="cls-13" x="36" y="27" width="9" height="9"/>
  <rect class="cls-13" x="36" y="36" width="9" height="9"/>
  <rect class="cls-13" x="27" y="36" width="9" height="9"/>
  <rect class="cls-13" x="18" y="36" width="9" height="9"/>
  <rect class="cls-13" x="9" y="36" width="9" height="9"/>
  <rect class="cls-13" x="9" y="45" width="9" height="9"/>
  <rect class="cls-13" x="9" y="54" width="9" height="9"/>
  <rect class="cls-13" y="54" width="9" height="9"/>
  <rect class="cls-9" x="45" y="27" width="9" height="9"/>
  <rect class="cls-9" x="27" y="27" width="9" height="9"/>
  <rect class="cls-9" x="27" y="18" width="9" height="9"/>
  <rect class="cls-9" x="18" y="18" width="9" height="9"/>
  <rect class="cls-9" x="18" y="27" width="9" height="9"/>
  <rect class="cls-9" x="9" y="27" width="9" height="9"/>
  <rect class="cls-12" x="54" y="9" width="9" height="9"/>
  <rect class="cls-12" x="54" y="18" width="9" height="9"/>
  <rect class="cls-12" x="63" y="18" width="9" height="9"/>
  <rect class="cls-12" x="63" y="27" width="9" height="9"/>
  <rect class="cls-12" x="72" y="27" width="9" height="9"/>
  <rect class="cls-12" x="72" y="36" width="9" height="9"/>
  <rect class="cls-12" x="72" y="45" width="9" height="9"/>
  <rect class="cls-12" x="72" y="54" width="9" height="9"/>
  <rect class="cls-12" x="63" y="72" width="9" height="9"/>
  <rect class="cls-12" x="72" y="72" width="9" height="9"/>
  <rect class="cls-12" x="45" y="36" width="9" height="9"/>
  <rect class="cls-12" x="45" y="45" width="9" height="9"/>
  <rect class="cls-12" x="36" y="45" width="9" height="9"/>
  <rect class="cls-12" x="27" y="45" width="9" height="9"/>
  <rect class="cls-12" x="18" y="45" width="9" height="9"/>
  <rect class="cls-12" x="18" y="54" width="9" height="9"/>
  <rect class="cls-12" x="18" y="63" width="9" height="9"/>
  <rect class="cls-12" x="9" y="63" width="9" height="9"/>
  <rect class="cls-2" x="63" y="36" width="9" height="9"/>
  <rect class="cls-2" x="63" y="45" width="9" height="9"/>
  <rect class="cls-2" x="54" y="45" width="9" height="9"/>
  <rect class="cls-2" x="54" y="54" width="9" height="9"/>
  <rect class="cls-2" x="63" y="54" width="9" height="9"/>
  <rect class="cls-2" x="63" y="63" width="9" height="9"/>
  <rect class="cls-2" x="54" y="63" width="9" height="9"/>
  <rect class="cls-2" x="45" y="63" width="9" height="9"/>
  <rect class="cls-2" x="45" y="54" width="9" height="9"/>
  <rect class="cls-2" x="36" y="54" width="9" height="9"/>
  <rect class="cls-2" x="27" y="54" width="9" height="9"/>
  <rect class="cls-2" x="27" y="63" width="9" height="9"/>
  <rect class="cls-2" x="36" y="63" width="9" height="9"/>
  <rect class="cls-6" x="54" y="27" width="9" height="9"/>
  <rect class="cls-6" x="54" y="36" width="9" height="9"/>
  <rect class="cls-2" x="9" y="81" width="9" height="9"/>
  <rect class="cls-2" x="18" y="81" width="9" height="9"/>
  <rect class="cls-2" x="63" y="81" width="9" height="9"/>
  <rect class="cls-2" x="72" y="81" width="9" height="9"/>
  <rect class="cls-10" x="36" y="45" width="9" height="9"/>
  <rect class="cls-11" x="36" y="54" width="9" height="9"/>
  <rect class="cls-11" x="54" y="54" width="9" height="9"/>
  <rect class="cls-10" x="54" y="45" width="9" height="9"/>
  <rect class="cls-6" x="45" y="36" width="9" height="9"/>
  <rect class="cls-2" x="45" y="45" width="9" height="9"/>
  <rect class="cls-12" x="36" y="36" width="9" height="9"/>
  <rect class="cls-12" x="36" y="27" width="9" height="9"/>
  <rect class="cls-12" x="45" y="27" width="9" height="9"/>
  <rect class="cls-12" x="45" y="18" width="9" height="9"/>
  <rect class="cls-13" x="27" y="18" width="9" height="9"/>
  <rect class="cls-13" x="27" y="27" width="9" height="9"/>
  <rect class="cls-7" x="36" y="99" width="9" height="9"/>
  <rect class="cls-7" x="45" y="99" width="9" height="9"/>
  <rect class="cls-3" x="36" y="72" width="9" height="9"/>
  <rect class="cls-3" x="36" y="81" width="9" height="9"/>
  <rect class="cls-3" x="45" y="81" width="9" height="9"/>
  <rect class="cls-3" x="54" y="81" width="9" height="9"/>
  <rect class="cls-3" x="54" y="72" width="9" height="9"/>
  <rect class="cls-3" x="27" y="81" width="9" height="9"/>
  <rect class="cls-3" x="27" y="72" width="9" height="9"/>
  <rect class="cls-7" x="18" y="72" width="9" height="9"/>
  <rect class="cls-8" x="18" y="72" width="9" height="9"/>
  <rect class="cls-14" x="9" y="72" width="9" height="9"/>
  <rect class="cls-1" x="27" y="90" width="9" height="9"/>
  <rect class="cls-5" x="36" y="90" width="9" height="9"/>
  <rect class="cls-5" x="45" y="90" width="9" height="9"/>
  <rect class="cls-1" x="54" y="99" width="9" height="9"/>
  <rect class="cls-5" x="45" y="99" width="9" height="9"/>
  <rect class="cls-1" x="36" y="99" width="9" height="9"/>
  <rect class="cls-1" x="27" y="99" width="9" height="9"/>
  <rect class="cls-3" x="36" y="108" width="9" height="9"/>
  <rect class="cls-3" x="54" y="108" width="9" height="9"/>
  <rect class="cls-3" x="27" y="108" width="9" height="9"/>
  <rect class="cls-3" x="45" y="108" width="9" height="9"/>
  <rect class="cls-7" x="54" y="117" width="9" height="9"/>
  <rect class="cls-7" x="63" y="108" width="9" height="9"/>
  <rect class="cls-7" x="18" y="108" width="9" height="9"/>
  <rect class="cls-7" x="36" y="117" width="9" height="9"/>
  <rect class="cls-7" x="27" y="117" width="9" height="9"/>
  <rect class="cls-7" x="45" y="108" width="9" height="9"/>
  <rect class="cls-7" x="45" y="99" width="9" height="9"/>
  <rect class="cls-7" x="45" y="117" width="9" height="9"/>
  <rect class="cls-7" x="63" y="99" width="9" height="9"/>
  <rect class="cls-7" x="63" y="90" width="9" height="9"/>
  <rect class="cls-7" x="72" y="90" width="9" height="9"/>
  <rect class="cls-7" x="81" y="81" width="9" height="9"/>
  <rect class="cls-7" x="81" y="72" width="9" height="9"/>
  <rect class="cls-7" x="72" y="63" width="9" height="9"/>
  <rect class="cls-7" x="81" y="54" width="9" height="9"/>
  <rect class="cls-7" x="81" y="45" width="9" height="9"/>
  <rect class="cls-7" x="81" y="36" width="9" height="9"/>
  <rect class="cls-7" x="81" y="27" width="9" height="9"/>
  <rect class="cls-7" x="81" y="18" width="9" height="9"/>
  <rect class="cls-7" x="72" y="18" width="9" height="9"/>
  <rect class="cls-7" x="63" y="9" width="9" height="9"/>
  <rect class="cls-7" x="54" width="9" height="9"/>
  <rect class="cls-7" x="45" width="9" height="9"/>
  <rect class="cls-7" x="36" width="9" height="9"/>
  <rect class="cls-7" x="27" width="9" height="9"/>
  <rect class="cls-7" x="18" y="9" width="9" height="9"/>
  <rect class="cls-7" x="9" y="18" width="9" height="9"/>
  <rect class="cls-7" y="27" width="9" height="9"/>
  <rect class="cls-7" y="36" width="9" height="9"/>
  <rect class="cls-7" y="45" width="9" height="9"/>
  <rect class="cls-7" y="54" width="9" height="9"/>
  <rect class="cls-7" x="9" y="63" width="9" height="9"/>
  <rect class="cls-7" y="72" width="9" height="9"/>
  <rect class="cls-7" y="81" width="9" height="9"/>
  <rect class="cls-7" x="9" y="90" width="9" height="9"/>
  <rect class="cls-7" x="18" y="90" width="9" height="9"/>
  <rect class="cls-7" x="18" y="99" width="9" height="9"/>
  <rect class="cls-1" x="36" y="90" width="9" height="9"/>
  <rect class="cls-1" x="45" y="90" width="9" height="9"/>
  <rect class="cls-8" x="45" y="72" width="9" height="9"/>
  <rect class="cls-1" x="54" y="90" width="9" height="9"/>
  <rect class="cls-4" x="27" y="54" width="9" height="9"/>
  <rect class="cls-4" x="27" y="63" width="9" height="9"/>
  <rect class="cls-4" x="54" y="63" width="9" height="9"/>
  <rect class="cls-4" x="63" y="63" width="9" height="9"/>
  <rect class="cls-4" x="63" y="54" width="9" height="9"/>
  <rect class="cls-4" x="36" y="63" width="9" height="9"/>
  <rect class="cls-4" x="27" y="54" width="9" height="9"/>
</svg>