<?xml version="1.0" encoding="UTF-8"?>
<svg id="_레이어_1" data-name="레이어 1" xmlns="http://www.w3.org/2000/svg" viewBox="0 0 108 135">
  <defs>
    <style>
      .cls-1 {
        fill: #54132f;
      }

      .cls-1, .cls-2, .cls-3, .cls-4, .cls-5, .cls-6, .cls-7, .cls-8, .cls-9, .cls-10, .cls-11, .cls-12, .cls-13, .cls-14, .cls-15, .cls-16, .cls-17, .cls-18, .cls-19, .cls-20 {
        stroke-width: 0px;
      }

      .cls-2 {
        fill: #8b8888;
      }

      .cls-3 {
        fill: #be438e;
      }

      .cls-4 {
        fill: #d53c3a;
      }

      .cls-5 {
        fill: #ecc29a;
      }

      .cls-6 {
        fill: #5e1313;
      }

      .cls-7 {
        fill: #6f401e;
      }

      .cls-8 {
        fill: #b2aaae;
      }

      .cls-9 {
        fill: #cccaca;
      }

      .cls-10 {
        fill: #ed7b7c;
      }

      .cls-11 {
        fill: #e83430;
      }

      .cls-12 {
        fill: #f2a680;
      }

      .cls-13 {
        fill: #040000;
      }

      .cls-14 {
        fill: #362a59;
      }

      .cls-15 {
        fill: #5a328a;
      }

      .cls-16 {
        fill: #fff;
      }

      .cls-17 {
        fill: #e1ab5c;
      }

      .cls-18 {
        fill: #a71f75;
      }

      .cls-19 {
        fill: #cd9041;
      }

      .cls-20 {
        fill: #e6d086;
      }
    </style>
  </defs>
  <rect class="cls-15" x="54" y="9" width="9" height="9"/>
  <rect class="cls-15" x="63" y="9" width="9" height="9"/>
  <rect class="cls-15" x="72" y="9" width="9" height="9"/>
  <rect class="cls-15" x="45" y="9" width="9" height="9"/>
  <rect class="cls-15" x="36" y="18" width="9" height="9"/>
  <rect class="cls-15" x="27" y="27" width="9" height="9"/>
  <rect class="cls-15" x="18" y="36" width="9" height="9"/>
  <rect class="cls-15" x="9" y="45" width="9" height="9"/>
  <rect class="cls-15" x="9" y="54" width="9" height="9"/>
  <rect class="cls-14" x="18" y="90" width="9" height="9"/>
  <rect class="cls-14" x="18" y="99" width="9" height="9"/>
  <rect class="cls-14" x="18" y="108" width="9" height="9"/>
  <rect class="cls-14" x="27" y="108" width="9" height="9"/>
  <rect class="cls-14" x="36" y="108" width="9" height="9"/>
  <rect class="cls-14" x="36" y="99" width="9" height="9"/>
  <rect class="cls-14" x="27" y="99" width="9" height="9"/>
  <rect class="cls-14" x="81" y="99" width="9" height="9"/>
  <rect class="cls-14" x="90" y="99" width="9" height="9"/>
  <rect class="cls-14" x="90" y="108" width="9" height="9"/>
  <rect class="cls-14" x="81" y="108" width="9" height="9"/>
  <rect class="cls-14" x="81" y="99" width="9" height="9"/>
  <rect class="cls-16" x="45" y="108" width="9" height="9"/>
  <rect class="cls-16" x="54" y="108" width="9" height="9"/>
  <rect class="cls-16" x="72" y="108" width="9" height="9"/>
  <rect class="cls-13" x="99" y="90" width="9" height="9"/>
  <rect class="cls-13" x="99" y="81" width="9" height="9"/>
  <rect class="cls-16" x="90" y="72" width="9" height="9"/>
  <rect class="cls-15" x="81" y="18" width="9" height="9"/>
  <rect class="cls-15" x="90" y="27" width="9" height="9"/>
  <rect class="cls-15" x="45" y="18" width="9" height="9"/>
  <rect class="cls-15" x="54" y="18" width="9" height="9"/>
  <rect class="cls-14" x="63" y="18" width="9" height="9"/>
  <rect class="cls-20" x="63" y="27" width="9" height="9"/>
  <rect class="cls-14" x="54" y="27" width="9" height="9"/>
  <rect class="cls-20" x="54" y="36" width="9" height="9"/>
  <rect class="cls-20" x="54" y="45" width="9" height="9"/>
  <rect class="cls-14" x="45" y="45" width="9" height="9"/>
  <rect class="cls-14" x="36" y="45" width="9" height="9"/>
  <rect class="cls-14" x="27" y="45" width="9" height="9"/>
  <rect class="cls-14" x="27" y="54" width="9" height="9"/>
  <rect class="cls-14" x="27" y="63" width="9" height="9"/>
  <rect class="cls-20" x="9" y="63" width="9" height="9"/>
  <rect class="cls-17" x="63" y="36" width="9" height="9"/>
  <rect class="cls-14" x="45" y="36" width="9" height="9"/>
  <rect class="cls-14" x="45" y="27" width="9" height="9"/>
  <rect class="cls-15" x="36" y="27" width="9" height="9"/>
  <rect class="cls-15" x="36" y="36" width="9" height="9"/>
  <rect class="cls-15" x="27" y="36" width="9" height="9"/>
  <rect class="cls-14" x="72" y="18" width="9" height="9"/>
  <rect class="cls-8" x="72" y="27" width="9" height="9"/>
  <rect class="cls-14" x="81" y="27" width="9" height="9"/>
  <rect class="cls-2" x="81" y="36" width="9" height="9"/>
  <rect class="cls-14" x="90" y="36" width="9" height="9"/>
  <rect class="cls-2" x="90" y="45" width="9" height="9"/>
  <rect class="cls-2" x="90" y="54" width="9" height="9"/>
  <rect class="cls-2" x="90" y="63" width="9" height="9"/>
  <rect class="cls-15" x="81" y="81" width="9" height="9"/>
  <rect class="cls-15" x="90" y="81" width="9" height="9"/>
  <rect class="cls-19" x="63" y="45" width="9" height="9"/>
  <rect class="cls-19" x="63" y="54" width="9" height="9"/>
  <rect class="cls-19" x="54" y="54" width="9" height="9"/>
  <rect class="cls-8" x="45" y="54" width="9" height="9"/>
  <rect class="cls-8" x="36" y="54" width="9" height="9"/>
  <rect class="cls-8" x="36" y="63" width="9" height="9"/>
  <rect class="cls-8" x="36" y="72" width="9" height="9"/>
  <rect class="cls-5" x="81" y="45" width="9" height="9"/>
  <rect class="cls-5" x="81" y="54" width="9" height="9"/>
  <rect class="cls-5" x="72" y="54" width="9" height="9"/>
  <rect class="cls-5" x="72" y="63" width="9" height="9"/>
  <rect class="cls-5" x="81" y="63" width="9" height="9"/>
  <rect class="cls-5" x="81" y="72" width="9" height="9"/>
  <rect class="cls-5" x="72" y="72" width="9" height="9"/>
  <rect class="cls-5" x="63" y="72" width="9" height="9"/>
  <rect class="cls-5" x="63" y="63" width="9" height="9"/>
  <rect class="cls-5" x="54" y="63" width="9" height="9"/>
  <rect class="cls-5" x="45" y="63" width="9" height="9"/>
  <rect class="cls-5" x="45" y="72" width="9" height="9"/>
  <rect class="cls-5" x="54" y="72" width="9" height="9"/>
  <rect class="cls-12" x="72" y="36" width="9" height="9"/>
  <rect class="cls-12" x="72" y="45" width="9" height="9"/>
  <rect class="cls-5" x="27" y="90" width="9" height="9"/>
  <rect class="cls-5" x="36" y="90" width="9" height="9"/>
  <rect class="cls-5" x="81" y="90" width="9" height="9"/>
  <rect class="cls-5" x="90" y="90" width="9" height="9"/>
  <rect class="cls-6" x="54" y="54" width="9" height="9"/>
  <rect class="cls-4" x="54" y="63" width="9" height="9"/>
  <rect class="cls-4" x="72" y="63" width="9" height="9"/>
  <rect class="cls-6" x="72" y="54" width="9" height="9"/>
  <rect class="cls-12" x="63" y="45" width="9" height="9"/>
  <rect class="cls-5" x="63" y="54" width="9" height="9"/>
  <rect class="cls-8" x="54" y="45" width="9" height="9"/>
  <rect class="cls-8" x="54" y="36" width="9" height="9"/>
  <rect class="cls-8" x="63" y="36" width="9" height="9"/>
  <rect class="cls-8" x="63" y="27" width="9" height="9"/>
  <rect class="cls-15" x="18" y="54" width="9" height="9"/>
  <rect class="cls-15" x="18" y="45" width="9" height="9"/>
  <rect class="cls-13" x="54" y="108" width="9" height="9"/>
  <rect class="cls-13" x="63" y="108" width="9" height="9"/>
  <rect class="cls-7" x="54" y="81" width="9" height="9"/>
  <rect class="cls-7" x="54" y="90" width="9" height="9"/>
  <rect class="cls-7" x="63" y="90" width="9" height="9"/>
  <rect class="cls-7" x="72" y="90" width="9" height="9"/>
  <rect class="cls-7" x="72" y="81" width="9" height="9"/>
  <rect class="cls-7" x="45" y="90" width="9" height="9"/>
  <rect class="cls-13" x="45" y="81" width="9" height="9"/>
  <rect class="cls-13" x="54" y="81" width="9" height="9"/>
  <rect class="cls-13" x="54" y="90" width="9" height="9"/>
  <rect class="cls-13" x="45" y="90" width="9" height="9"/>
  <rect class="cls-13" x="63" y="90" width="9" height="9"/>
  <rect class="cls-13" x="72" y="90" width="9" height="9"/>
  <rect class="cls-13" x="72" y="81" width="9" height="9"/>
  <rect class="cls-13" x="45" y="108" width="9" height="9"/>
  <rect class="cls-15" x="36" y="81" width="9" height="9"/>
  <rect class="cls-15" x="27" y="81" width="9" height="9"/>
  <rect class="cls-18" x="45" y="99" width="9" height="9"/>
  <rect class="cls-3" x="54" y="99" width="9" height="9"/>
  <rect class="cls-11" x="63" y="99" width="9" height="9"/>
  <rect class="cls-3" x="72" y="108" width="9" height="9"/>
  <rect class="cls-3" x="63" y="108" width="9" height="9"/>
  <rect class="cls-3" x="54" y="108" width="9" height="9"/>
  <rect class="cls-18" x="45" y="108" width="9" height="9"/>
  <rect class="cls-1" x="54" y="117" width="9" height="9"/>
  <rect class="cls-1" x="72" y="117" width="9" height="9"/>
  <rect class="cls-1" x="45" y="117" width="9" height="9"/>
  <rect class="cls-7" x="63" y="117" width="9" height="9"/>
  <rect class="cls-13" x="63" y="117" width="9" height="9"/>
  <rect class="cls-13" x="99" y="63" width="9" height="9"/>
  <rect class="cls-13" x="99" y="54" width="9" height="9"/>
  <rect class="cls-13" x="99" y="45" width="9" height="9"/>
  <rect class="cls-13" x="99" y="36" width="9" height="9"/>
  <rect class="cls-13" x="99" y="27" width="9" height="9"/>
  <rect class="cls-13" x="72" y="126" width="9" height="9"/>
  <rect class="cls-13" x="81" y="117" width="9" height="9"/>
  <rect class="cls-13" x="27" y="117" width="9" height="9"/>
  <rect class="cls-13" x="36" y="117" width="9" height="9"/>
  <rect class="cls-13" x="54" y="126" width="9" height="9"/>
  <rect class="cls-13" x="45" y="126" width="9" height="9"/>
  <rect class="cls-13" x="63" y="126" width="9" height="9"/>
  <rect class="cls-13" x="90" y="117" width="9" height="9"/>
  <rect class="cls-13" x="99" y="99" width="9" height="9"/>
  <rect class="cls-13" x="99" y="108" width="9" height="9"/>
  <rect class="cls-13" x="99" y="90" width="9" height="9"/>
  <rect class="cls-13" x="99" y="81" width="9" height="9"/>
  <rect class="cls-13" x="90" y="72" width="9" height="9"/>
  <rect class="cls-13" x="99" y="63" width="9" height="9"/>
  <rect class="cls-13" x="99" y="54" width="9" height="9"/>
  <rect class="cls-13" x="99" y="45" width="9" height="9"/>
  <rect class="cls-13" x="99" y="36" width="9" height="9"/>
  <rect class="cls-13" x="99" y="27" width="9" height="9"/>
  <rect class="cls-13" x="36" y="9" width="9" height="9"/>
  <rect class="cls-13" x="90" y="18" width="9" height="9"/>
  <rect class="cls-13" x="72" width="9" height="9"/>
  <rect class="cls-13" x="81" y="9" width="9" height="9"/>
  <rect class="cls-13" x="63" width="9" height="9"/>
  <rect class="cls-13" x="54" width="9" height="9"/>
  <rect class="cls-13" x="45" width="9" height="9"/>
  <rect class="cls-13" x="27" y="18" width="9" height="9"/>
  <rect class="cls-13" x="18" y="27" width="9" height="9"/>
  <rect class="cls-13" x="9" y="36" width="9" height="9"/>
  <rect class="cls-13" y="45" width="9" height="9"/>
  <rect class="cls-13" y="54" width="9" height="9"/>
  <rect class="cls-13" x="9" y="63" width="9" height="9"/>
  <rect class="cls-13" x="18" y="63" width="9" height="9"/>
  <rect class="cls-13" x="27" y="72" width="9" height="9"/>
  <rect class="cls-13" x="18" y="81" width="9" height="9"/>
  <rect class="cls-13" x="9" y="90" width="9" height="9"/>
  <rect class="cls-13" x="9" y="99" width="9" height="9"/>
  <rect class="cls-13" x="9" y="108" width="9" height="9"/>
  <rect class="cls-13" x="18" y="117" width="9" height="9"/>
  <rect class="cls-3" x="63" y="99" width="9" height="9"/>
  <rect class="cls-9" x="63" y="81" width="9" height="9"/>
  <rect class="cls-3" x="72" y="99" width="9" height="9"/>
  <rect class="cls-10" x="45" y="63" width="9" height="9"/>
  <rect class="cls-10" x="45" y="72" width="9" height="9"/>
  <rect class="cls-10" x="72" y="72" width="9" height="9"/>
  <rect class="cls-10" x="81" y="72" width="9" height="9"/>
  <rect class="cls-10" x="81" y="63" width="9" height="9"/>
  <rect class="cls-10" x="54" y="72" width="9" height="9"/>
  <rect class="cls-10" x="45" y="63" width="9" height="9"/>
</svg>